<?xml version="1.0" encoding="UTF-8"?>
<svg id="Layer_2" data-name="Layer 2" xmlns="http://www.w3.org/2000/svg" viewBox="0 0 495.7 48.86">
  <defs>
    <style>
      .cls-1 {
        stroke-width: 0px;
      }
    </style>
  </defs>
  <g id="Layer_1-2" data-name="Layer 1">
    <g>
      <path class="cls-1" d="m27.24.94h8.5l27.17,46.85h-8.7l-6.83-12.18H15.12l-6.83,12.18H0L27.24.94Zm-9.1,29.25h26.23l-1.61-2.81L31.25,6.89l-11.51,20.48-1.61,2.81Z"/>
      <path class="cls-1" d="m64.78.94h7.23v31.05l25.3-20.01h9.5l-18.07,14.32,18.4,21.48h-8.9l-14.79-17.4-11.44,8.97v8.43h-7.23V.94Z"/>
      <path class="cls-1" d="m106.14,38.28c0-9.44,12.31-10.04,22.42-11.18,6.76-.8,11.91-1.61,11.91-5.02,0-3.21-4.35-5.96-11.71-5.96s-12.72,3.21-14.46,8.37h-6.96c2.08-7.76,10.17-13.38,21.68-13.38s18.81,4.62,18.81,13.38v23.29h-7.23v-6.36c-4.22,4.75-10.77,7.16-18.27,7.16-10.04,0-16.2-3.95-16.2-10.31Zm17.47,5.55c6.56,0,13.52-2.41,17-6.69v-8.7c-2.68,2.01-7.23,2.68-11.98,3.21-7.56.87-15.19,1.41-15.19,6.63,0,3.68,4.22,5.55,10.17,5.55Z"/>
      <path class="cls-1" d="m151.38,29.92c0-11.11,10.17-19.01,23.16-19.01s23.02,7.56,23.02,19.14v1h-38.95c.6,7.56,7.03,12.58,15.93,12.58,7.16,0,12.78-3.28,15.06-8.43h7.29c-2.81,8.1-11.38,13.65-22.49,13.65-13.18,0-23.02-7.7-23.02-18.94Zm7.56-3.35h31.05c-1.61-6.36-7.56-10.51-15.59-10.51s-13.85,4.22-15.46,10.51Z"/>
      <path class="cls-1" d="m201.04,11.98h7.29v7.9c3.28-5.42,8.37-8.5,15.06-8.5.54,0,.94,0,1.47.07v6.22c-1-.2-1.94-.27-2.94-.27-5.76,0-11.11,2.74-13.59,7.83v22.55h-7.29V11.98Z"/>
      <path class="cls-1" d="m244.33,30.99h7.96c2.21,8.03,9.1,12.18,20.95,12.18s17.47-3.21,17.47-8.1c0-6.29-9.84-7.03-20.34-7.9-12.25-1.07-25.37-2.28-25.37-12.72,0-8.37,8.97-14.46,24.23-14.46s26.7,6.49,29.18,17.6h-7.5c-2.14-7.63-9.97-12.05-21.48-12.05-10.84,0-16.66,3.41-16.66,7.96,0,6.09,9.44,6.96,19.81,7.83,12.38,1.14,25.97,2.34,25.97,12.78,0,8.7-8.97,14.59-25.1,14.59s-26.44-6.22-29.11-17.74Z"/>
      <path class="cls-1" d="m313.33,38.35v-21.15h-12.65v-5.22h12.65v-7.76h7.16v7.76h16.46v5.22h-16.46v20.21c0,3.61,1.94,5.09,6.09,5.09h10.37v5.29h-13.18c-7.16,0-10.44-3.21-10.44-9.44Z"/>
      <path class="cls-1" d="m339.9,31.66V11.98h7.36v18.54c0,8.1,5.35,12.72,13.39,12.72,6.16,0,11.38-3.08,14.19-7.36V11.98h7.36v35.8h-7.36v-6.96c-3.75,4.89-9.57,7.76-16.46,7.76-11.24,0-18.47-6.76-18.47-16.93Z"/>
      <path class="cls-1" d="m385.81,29.92c0-10.98,9.17-18.74,21.68-18.74,8.03,0,14.66,3.28,18.27,8.83l-.07-19.07h7.36v46.85h-7.29v-8.1c-3.55,5.55-10.24,8.9-18.27,8.9-12.58,0-21.68-7.63-21.68-18.67Zm39.89,0c0-8.03-6.89-13.59-16.46-13.59s-16.2,5.55-16.2,13.59,6.76,13.59,16.2,13.59,16.46-5.55,16.46-13.59Z"/>
      <path class="cls-1" d="m437.54,1.61h7.36v6.49h-7.36V1.61Zm.07,10.37h7.23v35.8h-7.23V11.98Z"/>
      <path class="cls-1" d="m448.52,29.92c0-11.24,10.04-19.01,23.56-19.01s23.62,7.76,23.62,19.01-10.04,18.94-23.62,18.94-23.56-7.83-23.56-18.94Zm39.89,0c0-8.16-6.96-13.79-16.33-13.79s-16.33,5.62-16.33,13.72,6.96,13.72,16.33,13.72,16.33-5.62,16.33-13.65Z"/>
    </g>
  </g>
</svg>