<?xml version="1.0" encoding="UTF-8"?>
<svg className="h-8 w-auto fill-white" id="Layer_2" data-name="Layer 2" xmlns="http://www.w3.org/2000/svg" viewBox="0 0 933.43 184.31">
  <defs>
    <style>
      .cls-1 {
        stroke-width: 0px;
        fill: white;
      }
    
    </style>
  </defs>
  <g id="Layer_1-2" data-name="Layer 1">
    <g>
      <path className="cls-1" d="m344.45,76.98c-13.81,0-24.76,8.9-26.7,20.08h51.47c-.23-15.06-14.38-20.08-24.76-20.08Z"/>
      <path className="cls-1" d="m105.27,54.84c-3.65,7.87-11.98,24.76-19.86,40.97h39.71c-6.73-13.81-13.81-28.42-19.51-40.97h-.34Z"/>
      <path className="cls-1" d="m238.55,119.77c0,6.39,6.5,10.38,15.86,10.38,16.55,0,26.82-12.44,26.82-20.88v-8.56c-4.34,2.62-7.3,3.65-18.15,5.36-8.9,1.37-24.54,3.88-24.54,13.69Z"/>
      <path className="cls-1" d="m723.88,76.75c-15.75,0-27.27,11.18-27.27,26.36s11.75,26.25,27.27,26.25,28.3-10.84,28.3-26.36-12.9-26.25-28.3-26.25Z"/>
      <path className="cls-1" d="m0,0v184.31h933.43V0H0Zm144.41,134.5l-15.63-31.16h-46.9c-5.14,10.39-10.27,20.77-15.29,31.16h-9.47l43.48-89.01h9.7l43.48,89.01h-9.36Zm68.58,0c-9.81-10.96-19.74-22.03-29.67-32.87-3.99,3.31-7.76,6.62-11.64,9.93v22.94h-8.44V43.2h8.44v58.77h.34c11.98-10.38,23.17-20.08,35.26-30.47h10.39c-9.47,8.22-18.94,16.55-28.53,24.76,11.18,12.67,22.37,25.56,33.55,38.23h-9.7Zm70.87,0c-1.37-4.22-1.83-8.22-1.83-13.12h-.34c-4.79,8.56-14.15,15.06-28.3,15.06-12.78,0-23.85-5.36-23.85-16.43,0-12.1,13.01-16.78,27.5-19.29,12.78-2.17,24.08-2.4,24.08-10.84,0-6.96-7.76-13.58-19.63-13.58-10.5,0-18.14,5.14-21.11,13.24l-8.22-2.62c4.45-12.1,17.57-17.23,29.67-17.23,13.47,0,28.07,6.05,28.07,21v24.08c0,10.5.91,14.84,2.4,19.74h-8.44Zm61.05,1.94c-21.34,0-36.63-13.35-36.63-33.1s15.75-33.67,36.06-33.67c14.04,0,35.04,6.62,35.04,31.61v3.77h-61.97c.23,14.38,11.64,24.31,27.73,24.31,12.78,0,22.37-6.28,27.62-16.32l7.65,2.51c-5.93,13.58-19.51,20.88-35.49,20.88Zm94.15-57.17c-2.74-.91-6.96-1.48-9.36-1.48-16.09,0-24.42,13.47-24.42,26.13v30.58h-8.33v-63h8.1v13.01h.57c3.77-8.79,13.58-14.84,24.65-14.84,2.62,0,6.05.34,8.79,1.25v8.33Zm67.9,57.17c-15.41,0-33.55-6.62-39.83-26.13l8.22-2.74c4.56,14.27,17.35,21.34,31.84,21.34,12.1,0,26.36-5.02,26.36-17.35,0-11.64-12.78-14.04-23.17-16.66l-10.04-2.62c-9.93-2.62-29.44-8.1-29.44-24.88,0-15.86,17.58-23.74,34.46-23.74s30.36,7.53,35.15,21.34l-7.99,2.97c-4-10.16-14.27-16.78-28.19-16.78-13.12,0-24.19,6.05-24.19,15.63,0,11.75,16.55,15.98,22.94,17.69l10.38,2.85c12.1,3.2,29.67,6.85,29.67,23.05s-17,26.02-36.18,26.02Zm90.26-58.09h-23.39v35.04c0,7.08,0,16.09,10.84,16.09,3.31,0,7.76-.91,12.55-3.42v7.3c-3.88,2.05-9.13,3.08-13.81,3.08-17.92,0-17.92-13.47-17.92-20.88v-37.2h-15.06v-6.85h15.06v-18.72h8.33v18.72h23.39v6.85Zm69.95,56.15c-1.37-4.56-1.94-8.33-1.94-11.64h-.23c-5.82,9.59-15.41,13.58-26.13,13.58-13.12,0-27.16-6.39-27.16-25.45v-39.49h8.33v36.52c0,16.09,10.84,21.34,20.88,21.34,15.52,0,23.97-11.87,23.97-22.25v-35.61h8.33v43.25c0,9.59.68,14.04,2.51,19.74h-8.56Zm87.18,0c-1.37-4.68-1.94-7.99-1.83-12.67h-.34c-6.16,9.59-17.23,14.61-29.33,14.61-20.2,0-35.15-13.81-35.15-33.32s15.52-33.44,35.26-33.44c11.98,0,22.6,5.02,28.76,14.38h.34v-40.86h8.33v71.55c0,10.39.91,14.84,2.4,19.74h-8.44Zm34.69,0h-8.33v-63h8.33v63Zm-3.99-78.97c-4.22,0-7.42-2.85-7.42-6.5,0-3.42,3.2-6.28,7.42-6.28,3.99,0,7.19,2.85,7.19,6.28,0,3.65-3.2,6.5-7.19,6.5Zm56.14,80.91c-22.14,0-37.77-13.7-37.77-33.32s15.63-33.44,37.77-33.44,37.55,13.81,37.55,33.44-15.52,33.32-37.55,33.32Z"/>
      <path className="cls-1" d="m841.19,76.75c-16.89,0-28.76,10.96-28.76,26.36s11.87,26.25,28.76,26.25,28.64-10.84,28.64-26.25-11.64-26.36-28.64-26.36Z"/>
    </g>
  </g>
</svg>