<?xml version="1.0" encoding="utf-8"?>
<!-- Generator: Adobe Illustrator 27.8.1, SVG Export Plug-In . SVG Version: 6.00 Build 0)  -->
<svg version="1.1" id="Layer_2_00000013903360495327169590000006194847472756142480_"
	 xmlns="http://www.w3.org/2000/svg" xmlns:xlink="http://www.w3.org/1999/xlink" x="0px" y="0px" viewBox="0 0 358.9 113.2"
	 style="enable-background:new 0 0 358.9 113.2;" xml:space="preserve">
<g>
	<path d="M236.3,28.3c-1,2.9-2.1,6-3.3,9c4.8-1.9,11.5-1.9,16.7-3.3C245.8,31.5,239.2,31.7,236.3,28.3z"/>
	<path d="M223.9,60.8c-10.5,0.7-21.2,2.8-31.3,2.6c1.9-7.9,5.2-16,6.7-23.2c-7.1,8.6-18.6,16.3-23.4,27.2
		c-3.3,7.9,2.8,11.9,9.6,11.9c15.6,0,27-12.9,42.8-12.7c2.1-4.3,0.5-9.8-1.5-12.7C226,56.3,225.3,58.9,223.9,60.8z"/>
	<path d="M358.8,17.1c-34.2-5.3-67.3-16-107-14.1c-2.6,0.2-5.3,0.9-7.7,0.7c-3.4-0.3-6.4-2.1-9.6-2.6c-4-1-8.1-1.2-12-1l0,0
		c-12,0.7-23.1,4.8-32,8.8c-2.6,1-6.9,4.3-9.3,4.5c-2.8,0.2-7.9-2.8-11.9-3.8c-16.9-4.8-42.7-11.2-55.9-1
		C96.8,6.1,81.5,10.2,68.9,14C68.4,4,59.1-2,48.2,1.1C41,3.2,35.2,7.3,27.8,10C13.5,15.5-1,27.2,0,45.8c0.5,8.8,4.3,15.8,6.7,22
		c2.6,6.5,5.3,11.7,9.6,19.1c-1.2,2.2-2.2,3.6-2.6,6c-2.8,20.8,25,21.5,39.6,15.3C66,103,79.2,93.7,88.2,86.9
		c-7.2,30.8,41.1,32,53.3,16.7c17.2,12.9,54.4,11.4,72.8,0.7c17,13.8,54.7,8.4,77.6,3.3c11.9-2.8,22.4-5,29.9-10.5
		c7.9-5.7,12.9-14.6,15-25.8c-1.5-4.3-4.5-7.6-7-10.8c1.4-2.8,1.7-7.7,1-11.5c10-7.2,18.4-18.4,25.8-27.7
		C357.4,20,359.2,18.6,358.8,17.1z M334,28.8c-6.7,7.8-14.6,13.8-28.7,14.6c-10.2,0.7-20.7-1.4-31.3-1.2c-2.2,1.7-2.6,5.7-4.5,7.9
		c14.8,2.8,24.8-5.3,38.7-4.5c5,0.3,10.2,2.4,10.5,6.4c0.7,5.8-5.3,11.2-10.2,13.1c-10.1,3.8-28.4,1.7-41.1,3.8
		c-4.5,0.7-9.6,2.8-9,5.7c0.3,1.9,7,3.1,10.2,3.3c16.9,1.2,29.1-5.2,41.8-7.1c4.3-0.7,10.5-1,13.1,1.2c-2.2,15.5-15,18.2-30.6,22
		c-17,4.1-38.4,9.1-59.4,4.8c-8.1-1.7-12-2.8-10.5-13.1c-12.9,7.7-37,19.1-60.9,12.7c-11.2-2.9-21.5-7-21.7-21
		c-1.5,3.3-3.3,6.7-5.2,10.5c-1.5,3.1-2.8,7.9-5.5,10c-5.7,4.1-26.7,4-29.1-2.6c-2.2-5.9,2.2-18.4,3.8-22.4
		c3.8-10.5,9.1-17.2,6.4-29.8c-2.8,1.5-4.7,4.5-6.7,7C91.9,64.4,80.4,79.4,63,89.2c-8.1,4.6-16.9,10-27.5,10c-3.8,0-7.6-0.3-9.3-2.9
		c0.3-4.3,4.3-5.2,6-8.3C26,79.2,20.9,69.7,16.6,58.6c-1.9-5.2-4.7-9.8-3.8-17.2c1.7-13.1,14.3-17.2,25.6-21.7
		c6-2.4,11.2-7.2,17.2-6.4c2.2,6.2-0.4,12.6-1.6,18.9c-2.1,10-4.6,20.7-2.2,32.5c4-1.7,6.4-5.2,8.6-9c1.9-3.1,5.5-8.1,6-12
		c0.4-4-2.2-7.9-1-11.9c1.7-6.4,15.8-8.6,22.4-10c7.1-1.4,14.3-2.2,22.2-1.4c2.1,0.2,5,1.4,6.7,1.2c2.1-0.3,3.8-3.3,6-4.5
		c7.6-4.1,20.3-0.9,29.4,1c6.4,1.4,12.7,3.1,19.1,4.8c-2.9,4-6.7,7.9-10,12.4c-3.3,4.5-6.2,9.1-9,13.8c7.6-7.9,18.4-15.7,30.6-22.4
		c11.5-6.2,26-13.9,41.5-14.3l0,0c5.2,0,10.5,0.7,15.7,2.6c-0.2,2.4-1,4.1-1.6,6.4v0.2c2.6-1.7,5.3-5.7,9.3-6.2
		c30.1-3.6,63.7,6.2,88.1,10C336.6,27.1,334.7,27.9,334,28.8z"/>
</g>
</svg>
