<?xml version="1.0" encoding="UTF-8"?>
<svg id="Layer_2" data-name="Layer 2" xmlns="http://www.w3.org/2000/svg" viewBox="0 0 279.95 348.09">
  <defs>
    <style>
      .cls-1 {
        stroke-width: 0px;
      }
    </style>
  </defs>
  <g id="Layer_1-2" data-name="Layer 1">
    <g id="g1116">
      <path id="path3095" class="cls-1" d="m139.54,40.38c-57.6,0-104.3,32.36-104.3,72.27s43.81,70.15,98.87,72.12v59.88h10.47v-53.72l74.85,47.96,5.62-8.84-71.52-45.83c50.98-4.74,90.32-34.96,90.32-71.57,0-39.9-46.72-72.27-104.31-72.27h0Zm0,3.89c49.27,0,89.22,30.92,89.22,69.04s-39.95,69-89.22,69-89.22-30.88-89.22-69,39.95-69.04,89.22-69.04Z"/>
      <path id="path3101" class="cls-1" d="m139.55,53.67c-47.37,0-85.78,26.69-85.78,58.98s38.41,59.28,85.78,59.28,85.78-26.99,85.78-59.28c0-32.29-38.41-58.98-85.78-58.98Zm-.17,4.64c40.52,0,68.21,24.02,68.21,54.86s-27.53,54.67-68.05,54.67-67.22-23.82-67.22-54.67c0-30.84,26.53-54.86,67.05-54.86h0Z"/>
      <path id="path3103" class="cls-1" d="m139.55,68.3c-35.07,0-63.51,20.09-63.51,44.39s28.44,44.62,63.51,44.62,63.51-20.31,63.51-44.62c0-24.3-28.44-44.39-63.51-44.39Zm-.12,3.49c30,0,48.18,18.08,48.18,41.29s-18.06,41.15-48.05,41.15-46.77-17.93-46.77-41.15c0-23.21,16.65-41.29,46.65-41.29h0Z"/>
      <path id="path3113" class="cls-1" d="m175.64,112.67c0,19.95-16.22,36.13-36.23,36.13s-36.23-16.18-36.23-36.13,16.22-36.13,36.23-36.13c20.01,0,36.23,16.18,36.23,36.13Z"/>
      <path id="rect915" class="cls-1" d="m0,0v348.09h279.95V0H0Zm11.6,11.6h256.74v255.26H11.6V11.6Zm30,273.35c8.41.04,15.25,2.79,17.68,4.07.97.51,1.49-.11,1.49-.62v-1.53h5.41v13.17h-4.86c-.53-2.43-1.96-4.17-3-5.02-.93-.74-2.07-1.35-3.05-1.83-2.88-1.29-7.42-2.48-12.81-2.47-4.52,0-8.91.83-11.04,2.17-1.35.87-2.07,1.94-2.07,3.17,0,1.73,1.52,2.46,2.27,2.69,2.4.75,8.51,1.25,12.02,1.62,3.33.33,10.32,1.28,13.44,2.06,1.58.38,3.52,1.08,4.77,1.66,1.43.66,2.78,1.52,3.88,2.64.84.81,3.14,3.5,3.14,7.85s-2.65,7.01-3.88,7.95c-2.21,1.78-4.98,2.94-7.26,3.59-2.36.68-5.8,1.71-12.22,1.71-3.91,0-5.95-.46-9.1-1.12-3.88-.81-7.56-2.24-8.81-2.83-.98-.46-1.3.51-1.3.72v2.05h-6.01v-15.14h5.44c0,1.79.84,3.61,1.38,4.26,2.18,2.67,4.52,3.74,6.72,4.55,1.94.66,7.22,1.98,11.64,1.98,5.98,0,9.29-1.52,9.78-1.71.48-.19,3.25-1.07,3.25-4.03s-2.6-3.49-4.17-3.89c-1.98-.48-6.83-.98-11.73-1.49-4.97-.56-9.93-1.32-12.25-1.83-5.21-1.12-7.2-3.09-8.45-4.22.09.09-2.83-2.59-2.83-7.16,0-5.09,3.5-8.15,7.76-10.05,4.57-2.04,9.99-2.96,14.76-2.96Zm65.05,0c9.46,0,16.98,2.39,22.73,7.61,4.1,3.73,6.09,8.82,6.09,14.01s-2.1,10.36-6.09,14.05c-5.35,4.99-13.79,7.63-22.73,7.63s-17.14-2.68-22.68-7.63c-4.14-3.75-6.18-8.83-6.18-14.05s2.11-10.32,6.18-14.03c5.13-4.66,14.17-7.59,22.68-7.59Zm34.75,2.45h18.9l26.4,23.82-.28-16.05c-.02-2.09-.42-2.98-2.68-2.98h-4.97v-4.78h22.59v4.78h-4.85c-2.3,0-2.42.76-2.48,2.98l.41,30.67h-7.75l-30.44-27.16v19.26c.04,2.13.16,3.09,2.31,3.09h5.41v4.8h-22.21v-4.8h5.21c1.95,0,1.86-1.83,1.86-3.19v-22.49c0-1.48-.22-3.16-3.25-3.16h-4.2v-4.79Zm64.61,0h26.51v4.78h-3.19c-.72,0-1.25.69-.59,1.49l8.99,10.76.26.03,9.23-10.79c.41-.52.15-1.49-.82-1.49h-3.25v-4.78h21.71v4.78h-4.85c-1.76,0-2.48.31-3.79,1.83-.62.68-14.26,16.24-14.63,16.67l-.19.73v7.58l.11,1.06c.14.39.5.75,1.02.89l1.31.09h4.99v4.81h-26.36v-4.8h4.72l1.33-.1c.52-.14.85-.49,1.05-.89l.08-1.06v-7.58c0-.19,0-.26-.32-.68-.33-.43-13.82-15.74-14.44-16.41-.78-.84-2.11-2.14-4.15-2.14h-4.72v-4.78Zm-99.36,3.19c-4.68,0-9.15,1.67-12.2,4.66-2.89,2.89-4.43,6.97-4.43,11.32s1.55,8.39,4.43,11.28c3.04,3.01,7.52,4.68,12.2,4.68s9.12-1.64,12.18-4.68c3.04-3.04,4.45-6.74,4.45-11.28s-1.52-8.43-4.45-11.32c-3.01-2.96-7.51-4.66-12.18-4.66Z"/>
    </g>
  </g>
</svg>