<?xml version="1.0" encoding="UTF-8"?>
<svg id="Layer_2" data-name="Layer 2" xmlns="http://www.w3.org/2000/svg" viewBox="0 0 362.91 131.38">
  <defs>
    <style>
      .cls-1 {
        stroke-width: 0px;
      }
    </style>
  </defs>
  <g id="Layer_1-2" data-name="Layer 1">
    <g id="Layer_1-3" data-name="Layer 1">
      <path class="cls-1" d="m161.86,52.65v21.43h-5.39v-21.43h-7.59v-5.27h20.57v5.27h-7.59Z"/>
      <path class="cls-1" d="m185.37,74.08v-10.77c0-3.55-1.23-4.65-3.43-4.65s-3.43,1.1-3.43,4.53v10.89h-5.27v-25.1l5.27-2.57v9.06c.86-.98,2.57-1.72,4.65-1.72,5.15,0,7.34,3.55,7.34,9.19v11.26h-5.15v-.12h.01Z"/>
      <path class="cls-1" d="m211.7,65.76h-12c.25,2.69,2.2,3.79,4.16,3.79,1.47,0,2.69-.49,3.43-1.35l3.79,3.18c-1.59,2.08-4.53,3.18-7.1,3.18-5.76,0-9.43-4.04-9.43-10.41s3.79-10.41,8.94-10.41,8.45,4.78,8.45,10.41c-.24.74-.24,1.23-.24,1.59Zm-8.58-7.47c-1.84,0-3.06,1.59-3.3,3.55h6.85c-.12-1.84-1.22-3.55-3.55-3.55Z"/>
      <path class="cls-1" d="m128.43,118.65c-12.73,0-20.32-9.92-20.32-24.12s7.59-24,20.32-24,20.32,9.92,20.32,24c0,14.2-7.58,24.12-20.32,24.12Zm0-38.82c-7.59,0-10.65,6.49-10.65,14.81s3.18,14.81,10.65,14.81,10.65-6.49,10.65-14.81-3.06-14.81-10.65-14.81Z"/>
      <path class="cls-1" d="m177.16,93.67c-1.47-1.35-3.3-2.32-5.39-2.32-3.55,0-5.88,1.47-5.88,7.59v18.98h-9.19v-35.02h9.19v2.32c1.59-1.72,3.92-3.06,7.22-3.06,2.94,0,5.27,1.23,6.49,2.45l-2.45,9.07Z"/>
      <path class="cls-1" d="m198.84,118.65c-9.19,0-16.41-7.47-16.41-18.25s7.1-18.25,16.78-18.25c6.61,0,10.89,3.3,13.84,7.71l-6.12,6.12c-2.08-2.94-4.29-5.02-7.96-5.02-4.41,0-7.22,3.67-7.22,9.43s2.81,9.31,7.22,9.31c3.55,0,5.88-1.59,8.33-4.41l5.88,5.51c-3.43,4.54-7.34,7.84-14.33,7.84Z"/>
      <path class="cls-1" d="m241.21,117.91v-18.98c0-6.24-2.08-8.2-5.88-8.2s-6,1.84-6,7.96v19.1h-9.19v-43.83l9.19-4.65v15.92c1.59-1.72,4.53-3.06,8.2-3.06,8.94,0,12.98,6.12,12.98,16.04v19.71s-9.31-.01-9.31-.01Z"/>
      <path class="cls-1" d="m278.18,117.91v-2.32c-1.72,1.72-4.65,3.06-7.84,3.06-6.49,0-13.1-4.04-13.1-12.49,0-7.71,6.24-11.63,14.2-11.63,3.18,0,5.27.74,6.73,1.47v-1.72c0-2.45-1.72-4.41-5.02-4.41-4.16,0-6.37.61-9.55,2.32l-3.55-6.37c4.04-2.32,7.47-3.55,13.1-3.55,8.45,0,14.2,4.41,14.2,12.24v23.51h-9.19v-.12h0Zm0-14.69c-1.59-.98-3.18-1.47-6.37-1.47-3.43,0-5.39,1.59-5.39,4.41,0,2.45,1.35,4.65,5.39,4.65,2.94,0,5.39-1.47,6.37-3.18v-4.41Z"/>
      <path class="cls-1" d="m316.5,93.67c-1.47-1.35-3.3-2.32-5.27-2.32-3.55,0-6,1.47-6,7.59v18.98h-9.19v-35.02h9.19v2.32c1.59-1.72,3.92-3.06,7.22-3.06,3.06,0,5.27,1.23,6.49,2.45l-2.45,9.07Z"/>
      <path class="cls-1" d="m342.83,117.91v-2.2c-1.72,1.59-4.04,2.94-7.34,2.94-7.47,0-13.59-5.64-13.59-18.73,0-10.41,4.9-17.76,13.59-17.76,3.06,0,5.76,1.23,7.34,2.69v-11.02l9.19-4.65v48.61h-9.19v.12Zm0-23.99c-1.35-1.96-3.55-3.06-6.24-3.06-3.55,0-5.51,3.06-5.51,8.94,0,7.22,2.45,10.16,6,10.16,2.81,0,4.29-1.23,5.64-2.94v-13.1h.12Z"/>
      <path class="cls-1" d="m94.27,84.24c0,26.08-21.06,47.14-47.14,47.14S0,110.32,0,84.24s21.18-47.14,47.14-47.14c26.08,0,47.14,21.06,47.14,47.14Z"/>
      <path class="cls-1" d="m52.4,6.37c-4.9-.74-8.82-.74-12.24-1.23-4.16-.37-12.24-1.47-14.45-5.15,0,0,0,.37-.12.98-.12,1.35-.12,4.16.74,7.71.74,3.06,1.84,6.12,3.43,9.06.49.98,1.1,1.84,1.72,2.81,3.92,5.76,10.16,9.8,19.59,11.88,12.37,2.81,24,4.78,33.06,16.28v-.12c1.58-6.36-4.66-37.95-31.73-42.23Z"/>
      <path class="cls-1" d="m359.36,112.16c1.96,0,3.55,1.59,3.55,3.43,0,1.96-1.59,3.43-3.55,3.43s-3.55-1.59-3.55-3.43c0-1.84,1.59-3.43,3.55-3.43h0Zm0,.86c-1.35,0-2.45,1.1-2.45,2.57s1.1,2.57,2.45,2.57c1.47,0,2.45-1.23,2.45-2.57.13-1.47-.98-2.57-2.45-2.57h0Zm-.37,4.29h-.98v-3.18c.25,0,.74-.12,1.35-.12.74,0,1.1.12,1.23.25.25.12.37.37.37.74s-.25.61-.74.74h0c.37.12.61.37.61.86.12.49.12.61.25.74h-1.1c-.12-.12-.12-.37-.25-.74,0-.37-.25-.49-.49-.49h-.37v1.23h.12Zm0-1.84h.25c.37,0,.61-.12.61-.37s-.25-.37-.61-.37h-.37v.74h.12Z"/>
      <path class="cls-1" d="m82.15,122.32c1.96,0,3.55,1.59,3.55,3.43,0,1.96-1.59,3.43-3.55,3.43s-3.55-1.59-3.55-3.43c0-1.96,1.59-3.43,3.55-3.43h0Zm0,.86c-1.35,0-2.45,1.1-2.45,2.57s1.1,2.57,2.45,2.57c1.47,0,2.45-1.23,2.45-2.57s-.98-2.57-2.45-2.57h0Zm-.49,4.16h-.98v-3.18c.25,0,.74-.12,1.35-.12.74,0,1.1.12,1.23.25.25.12.37.37.37.74s-.25.61-.74.74h0c.37.12.61.37.61.86.12.49.12.61.25.74h-1.1c-.12-.12-.12-.37-.25-.74,0-.37-.25-.49-.49-.49h-.37v1.23h.12Zm.12-1.84h.25c.37,0,.61-.12.61-.37s-.25-.37-.61-.37h-.37v.74h.12Z"/>
    </g>
  </g>
</svg>