<?xml version="1.0" encoding="utf-8"?>
<!-- Generator: Adobe Illustrator 27.8.1, SVG Export Plug-In . SVG Version: 6.00 Build 0)  -->
<svg version="1.1" id="Layer_2_00000103950954152707255430000002096043364044873105_"
	 xmlns="http://www.w3.org/2000/svg" xmlns:xlink="http://www.w3.org/1999/xlink" x="0px" y="0px" viewBox="0 0 330 324.9"
	 style="enable-background:new 0 0 330 324.9;" xml:space="preserve">
<g>
	<path d="M328.8,237.5L328.8,237.5c-2.3-6.2-6.7-9.5-11.6-12.3c-0.9-0.6-1.8-1-2.5-1.3c-1.5-0.8-3-1.5-4.5-2.3
		c-15.5-8.2-27.6-18.6-36-30.8c-2.9-4.1-4.8-7.9-6.2-10.9c-0.7-2.1-0.7-3.2-0.1-4.3c0.4-0.8,1.4-1.6,2-2.1c2.6-1.7,5.4-3.6,7.2-4.7
		c3.3-2.2,6-3.9,7.6-5.1c6.3-4.5,10.8-9.2,13.6-14.5c3.9-7.5,4.4-16,1.4-23.9c-4.1-11.1-14.7-18-27.4-18c-2.6,0-5.3,0.3-7.9,0.9
		c-0.7,0.1-1.4,0.4-2.1,0.5c0.1-7.6-0.1-15.7-0.7-23.5c-2.4-27.7-12.1-42.2-22.2-53.9c-4.3-4.8-11.6-11.8-22.6-18.2
		C201.3,4.4,183.9,0,165,0s-36.4,4.5-51.7,13.2c-11.1,6.3-18.4,13.5-22.7,18.2C80.5,43,70.8,57.5,68.4,85.3
		c-0.7,7.8-0.8,15.9-0.7,23.5c-0.7-0.1-1.4-0.3-2.1-0.5c-2.7-0.6-5.3-0.9-7.9-0.9c-12.7,0-23.2,6.9-27.4,18
		c-3,7.9-2.5,16.5,1.4,23.9c2.8,5.3,7.2,10,13.6,14.5c1.7,1.1,4.4,2.9,7.6,5.1c1.8,1.1,4.4,2.9,7,4.6c0.3,0.2,1.7,1.3,2.3,2.3
		c0.6,1.1,0.6,2.3-0.2,4.5c-1.4,3-3.3,6.7-6.1,10.7c-8.2,12-20,22.2-35,30.4c-7.9,4.3-16.2,7-19.7,16.5c-2.6,7.1-0.9,15.3,5.8,22.2
		c2.2,2.3,5,4.5,8.4,6.3c8.2,4.5,15.2,6.8,20.6,8.3c0.9,0.3,3.2,1,4.1,1.8c2.4,2.1,2.1,5.3,5.3,10c2,2.9,4.3,5,6.1,6.2
		c6.8,4.7,14.5,5,22.6,5.3c7.4,0.4,15.6,0.6,25.1,3.7c3.9,1.3,8.1,3.8,12.8,6.7c11.4,7,26.9,16.6,52.9,16.6s41.7-9.5,53.2-16.6
		c4.7-2.9,8.8-5.4,12.5-6.7c9.4-3.1,17.8-3.5,25.1-3.7c8.2-0.3,15.8-0.6,22.6-5.3c2.1-1.5,4.8-3.9,6.9-7.6c2.3-3.9,2.3-6.8,4.5-8.6
		c0.9-0.8,2.9-1.5,3.9-1.7c5.5-1.5,12.5-3.7,21-8.4c3.7-2.1,6.6-4.3,8.9-6.8l0.1-0.1C329.8,252.3,331.4,244.5,328.8,237.5z
		 M305.7,250L305.7,250c-14.2,7.8-23.5,6.9-30.7,11.6c-6.2,4-2.5,12.7-7,15.7c-5.5,3.8-21.9-0.2-43,6.7
		c-17.4,5.8-28.5,22.3-59.8,22.3s-42.2-16.5-59.8-22.3c-21.1-6.9-37.5-2.9-43-6.7c-4.5-3.1-0.8-11.7-7-15.7
		c-7.2-4.7-16.7-3.9-30.7-11.6c-9-4.9-3.9-8.1-0.9-9.4c51.1-24.7,59.3-62.9,59.6-65.8c0.5-3.5,0.9-6.1-2.9-9.7
		c-3.7-3.3-19.9-13.5-24.3-16.6c-7.5-5.2-10.7-10.4-8.3-16.8c1.7-4.4,5.8-6.1,10.1-6.1c1.4,0,2.8,0.1,4,0.5
		c8.2,1.7,16.1,5.9,20.7,6.9c0.7,0.1,1.1,0.2,1.7,0.2c2.4,0,3.3-1.3,3.1-4c-0.5-9-1.8-26.4-0.3-42.6c2-22.3,9.2-33.5,17.7-43.3
		c4.1-4.7,23.5-25.1,60.4-25.1s56.3,20.5,60.4,25.1c8.6,9.8,15.8,20.8,17.7,43.3c1.4,16.2,0.2,33.7-0.4,42.6c-0.2,2.9,0.7,4,3.1,4
		c0.5,0,1-0.1,1.7-0.2c4.6-1.2,12.5-5.2,20.7-6.9c1.3-0.3,2.8-0.5,4-0.5c4.4,0,8.5,1.7,10.1,6.1c2.4,6.3-0.9,11.6-8.3,16.8
		c-4.5,3.1-20.7,13.1-24.3,16.6c-3.8,3.5-3.3,6.2-2.9,9.7c0.3,2.9,8.5,41.1,59.6,65.8C309.5,241.9,314.7,245,305.7,250z"/>
</g>
</svg>
